<?xml version="1.0" standalone="no"?>
<!DOCTYPE svg PUBLIC "-//W3C//DTD SVG 20010904//EN"
 "http://www.w3.org/TR/2001/REC-SVG-20010904/DTD/svg10.dtd">
<svg version="1.0" xmlns="http://www.w3.org/2000/svg"
 width="626.000000pt" height="581.000000pt" viewBox="0 0 626.000000 581.000000"
 preserveAspectRatio="xMidYMid meet">

<g transform="translate(0.000000,581.000000) scale(0.100000,-0.100000)"
fill="#000000" stroke="none">
<path d="M874 1455 c-93 -47 -60 -195 43 -195 41 0 84 22 70 36 -4 5 -17 3
-27 -4 -59 -37 -130 18 -115 89 11 49 81 79 113 47 8 -8 15 -9 22 -2 8 8 7 14
-3 22 -24 20 -70 23 -103 7z"/>
<path d="M2340 1425 c0 -44 0 -44 -25 -33 -51 23 -106 -32 -86 -85 14 -36 33
-46 89 -45 l52 1 0 104 c0 85 -3 103 -15 103 -11 0 -15 -12 -15 -45z m-2 -92
c2 -24 -2 -34 -18 -43 -47 -25 -91 30 -56 69 27 30 70 14 74 -26z"/>
<path d="M2667 1464 c-14 -15 -6 -34 14 -34 14 0 19 5 17 17 -3 18 -20 27 -31
17z"/>
<path d="M3060 1450 c-6 -11 -7 -20 -2 -20 5 0 17 9 27 20 16 18 16 20 2 20
-9 0 -21 -9 -27 -20z"/>
<path d="M3491 1456 c-12 -14 -5 -26 16 -26 15 0 18 26 4 34 -5 3 -14 0 -20
-8z"/>
<path d="M1600 1420 c0 -11 -7 -20 -15 -20 -8 0 -15 -4 -15 -9 0 -5 7 -11 15
-15 9 -3 15 -19 15 -41 0 -49 16 -75 45 -75 30 0 33 16 5 23 -30 8 -29 80 3
95 l22 11 -22 7 c-13 3 -23 14 -23 25 0 11 -7 19 -15 19 -8 0 -15 -9 -15 -20z"/>
<path d="M4018 1424 c-35 -18 -48 -43 -48 -88 0 -64 55 -93 126 -66 15 6 24
13 21 16 -3 3 -21 0 -40 -7 -30 -11 -39 -10 -61 5 -20 13 -26 24 -26 54 1 65
53 103 104 77 14 -8 28 -10 31 -5 7 12 -28 30 -57 30 -13 -1 -35 -7 -50 -16z"/>
<path d="M4177 1433 c-3 -5 -8 -37 -12 -73 -3 -36 -9 -73 -11 -82 -3 -10 -1
-18 4 -18 6 0 13 18 17 40 5 29 12 40 24 40 12 0 24 -14 34 -40 8 -22 20 -40
25 -40 6 0 4 16 -5 39 -15 37 -14 39 11 64 30 30 32 40 10 61 -16 16 -89 22
-97 9z m85 -26 c13 -22 -11 -47 -46 -47 -35 0 -37 4 -20 59 5 15 54 7 66 -12z"/>
<path d="M4327 1408 c-3 -18 -9 -59 -13 -90 l-6 -58 58 2 c57 2 58 2 12 5 -47
4 -48 5 -48 39 l0 34 51 0 c31 0 48 4 44 10 -3 6 -24 10 -46 10 -34 0 -39 3
-39 23 0 27 15 51 27 44 5 -3 24 -2 43 3 32 7 30 8 -21 9 -56 1 -57 1 -62 -31z"/>
<path d="M4525 1431 c-32 -13 -55 -46 -62 -84 -4 -29 -1 -40 20 -61 17 -17 37
-26 57 -26 35 0 70 15 70 31 0 6 -10 3 -22 -5 -12 -9 -32 -16 -43 -16 -28 0
-65 35 -65 61 0 34 28 76 59 89 26 10 35 10 55 -4 14 -9 27 -12 31 -6 14 23
-58 38 -100 21z"/>
<path d="M4661 1365 c-13 -91 -14 -108 -2 -101 4 3 11 34 15 68 4 35 10 73 13
86 3 12 1 22 -5 22 -5 0 -15 -34 -21 -75z"/>
<path d="M4832 1433 c-22 -9 -35 -43 -21 -59 10 -12 9 -17 -4 -27 -42 -33 -22
-87 32 -87 47 0 80 57 50 87 -9 9 -8 16 5 28 20 20 20 29 0 49 -15 16 -37 19
-62 9z m58 -28 c0 -34 -55 -50 -67 -19 -9 24 24 46 48 33 11 -5 19 -11 19 -14z
m-12 -87 c3 -22 -2 -30 -22 -39 -45 -21 -74 21 -40 56 25 25 58 15 62 -17z"/>
<path d="M4958 1431 c8 -4 24 -7 38 -5 13 1 26 -2 29 -7 3 -4 -14 -41 -39 -81
-24 -40 -42 -75 -39 -78 7 -7 36 35 77 112 l37 68 -58 0 c-35 0 -53 -4 -45 -9z"/>
<path d="M5102 1417 c-12 -13 -22 -30 -22 -39 0 -20 32 -48 54 -48 16 0 15 -3
-4 -31 -39 -54 -13 -42 29 14 45 59 53 100 22 117 -31 16 -56 12 -79 -13z m78
-27 c0 -20 -6 -31 -20 -35 -51 -16 -81 29 -39 58 30 22 59 10 59 -23z"/>
<path d="M5263 1381 c-24 -32 -43 -64 -43 -70 0 -6 16 -11 35 -11 28 0 35 -4
35 -20 0 -11 5 -20 10 -20 6 0 10 9 10 20 0 11 7 20 15 20 8 0 15 5 15 11 0 5
-5 7 -12 3 -8 -5 -9 10 -4 59 8 85 -4 87 -61 8z m39 -21 c-6 -34 -12 -44 -29
-46 -12 -2 -24 0 -27 5 -5 8 53 95 60 88 2 -2 0 -23 -4 -47z"/>
<path d="M5416 1396 c-49 -60 -59 -88 -40 -115 9 -13 26 -21 42 -21 33 0 45 8
61 38 14 27 -1 62 -28 62 -30 0 -32 12 -5 47 37 49 12 40 -30 -11z m44 -61
c10 -12 9 -20 -4 -40 -20 -30 -51 -32 -66 -4 -22 40 41 79 70 44z"/>
<path d="M1064 1388 c-30 -14 -46 -52 -34 -82 18 -49 82 -61 118 -23 29 30 28
62 -3 92 -26 27 -47 30 -81 13z m74 -54 c4 -38 -18 -59 -53 -50 -15 4 -27 16
-31 31 -9 35 12 57 50 53 27 -3 31 -7 34 -34z"/>
<path d="M1210 1330 c0 -40 4 -70 10 -70 6 0 10 19 10 43 0 49 10 67 35 71 21
3 34 26 15 26 -6 0 -20 -5 -31 -10 -13 -7 -19 -7 -19 0 0 5 -4 10 -10 10 -6 0
-10 -30 -10 -70z"/>
<path d="M1321 1330 c-2 -56 1 -70 13 -70 11 0 16 14 18 53 3 45 6 52 26 55
12 2 22 10 22 18 0 17 -5 17 -31 4 -13 -7 -19 -7 -19 0 0 5 -6 10 -13 10 -10
0 -15 -19 -16 -70z"/>
<path d="M1460 1393 c-41 -15 -55 -87 -22 -116 19 -17 57 -22 86 -11 27 10 18
27 -10 20 -32 -8 -64 1 -64 19 0 10 16 15 53 17 46 3 52 5 49 23 -6 39 -51 63
-92 48z m64 -38 c4 -12 -4 -15 -41 -15 -39 0 -44 2 -33 15 7 8 25 15 40 15 16
0 30 -7 34 -15z"/>
<path d="M1735 1388 c-27 -15 -35 -28 -35 -60 0 -60 74 -89 118 -48 31 29 29
73 -4 99 -30 24 -50 26 -79 9z m73 -54 c4 -38 -18 -59 -53 -50 -15 4 -27 16
-31 31 -9 35 12 57 50 53 27 -3 31 -7 34 -34z"/>
<path d="M1880 1330 c0 -40 4 -70 10 -70 6 0 10 15 10 33 0 51 11 77 31 77 19
0 35 17 25 27 -3 4 -17 1 -31 -5 -15 -7 -25 -8 -25 -2 0 6 -4 10 -10 10 -6 0
-10 -30 -10 -70z"/>
<path d="M2018 1393 c-33 -8 -18 -23 22 -23 55 0 54 -25 0 -34 -80 -13 -64
-70 19 -72 l51 -1 0 52 c0 72 -27 95 -92 78z m62 -88 c0 -18 -48 -31 -62 -17
-16 16 0 32 33 32 19 0 29 -5 29 -15z"/>
<path d="M2450 1393 c-44 -16 -55 -91 -18 -117 37 -26 111 -15 93 13 -5 9 -10
9 -21 0 -18 -15 -64 -3 -64 16 0 11 13 15 50 15 46 0 50 2 50 24 0 39 -47 65
-90 49z m64 -39 c4 -11 -5 -14 -41 -14 -44 0 -45 1 -29 19 19 20 61 18 70 -5z"/>
<path d="M2670 1330 c0 -40 4 -70 10 -70 6 0 10 30 10 70 0 40 -4 70 -10 70
-6 0 -10 -30 -10 -70z"/>
<path d="M2740 1328 c0 -51 3 -69 12 -66 7 3 14 24 16 49 5 55 17 72 43 58 15
-7 19 -21 19 -59 0 -38 4 -50 15 -50 11 0 15 12 15 50 0 37 4 52 18 59 31 17
46 -3 43 -58 -2 -40 1 -51 14 -51 12 0 15 12 15 54 0 65 -19 91 -59 81 -14 -3
-30 -5 -36 -5 -5 0 -34 2 -62 4 l-53 3 0 -69z"/>
<path d="M3016 1379 c-50 -40 -21 -119 44 -119 65 0 94 79 44 119 -15 12 -34
21 -44 21 -10 0 -29 -9 -44 -21z m84 -29 c26 -48 -30 -91 -70 -55 -37 33 -19
75 32 75 17 0 31 -7 38 -20z"/>
<path d="M3164 1377 c13 -53 46 -117 60 -117 8 0 23 22 34 53 11 28 23 60 27
70 5 11 2 17 -7 17 -8 0 -22 -22 -32 -50 -10 -28 -21 -48 -25 -45 -3 4 -13 25
-22 48 -18 47 -46 66 -35 24z"/>
<path d="M3333 1374 c-45 -46 -14 -113 53 -114 17 0 37 7 45 16 11 14 9 15
-24 9 -24 -5 -42 -3 -52 5 -27 22 -16 30 40 30 63 0 71 15 30 55 -31 32 -59
32 -92 -1z m87 -24 c0 -6 -18 -10 -40 -10 -44 0 -53 16 -17 29 23 9 57 -2 57
-19z"/>
<path d="M3490 1330 c0 -56 3 -70 15 -70 12 0 15 14 15 70 0 56 -3 70 -15 70
-12 0 -15 -14 -15 -70z"/>
<path d="M3578 1389 c-34 -19 -18 -62 27 -71 11 -2 21 -12 23 -22 4 -16 0 -18
-33 -12 -28 6 -36 4 -33 -6 6 -17 65 -23 84 -7 26 21 16 49 -22 65 -40 17 -41
41 -1 36 29 -4 37 12 11 22 -22 8 -36 7 -56 -5z"/>
<path d="M3788 1323 c12 -2 32 -2 45 0 12 2 2 4 -23 4 -25 0 -35 -2 -22 -4z"/>
</g>
</svg>
