<?xml version="1.0" standalone="no"?>
<!DOCTYPE svg PUBLIC "-//W3C//DTD SVG 20010904//EN"
 "http://www.w3.org/TR/2001/REC-SVG-20010904/DTD/svg10.dtd">
<svg version="1.0" xmlns="http://www.w3.org/2000/svg"
 width="657.000000pt" height="420.000000pt" viewBox="0 0 657.000000 420.000000"
 preserveAspectRatio="xMidYMid meet">

<g transform="translate(0.000000,420.000000) scale(0.100000,-0.100000)"
fill="#000000" stroke="none">
<path d="M2475 3730 c-11 -4 -95 -84 -187 -177 -213 -215 -210 -203 -76 -340
l92 -93 -56 -58 c-31 -31 -62 -70 -68 -86 -24 -63 20 -126 87 -126 29 0 46 11
104 67 l70 67 65 -65 c76 -75 94 -117 75 -179 -16 -55 -54 -96 -106 -115 -56
-22 -101 -14 -150 25 -40 32 -73 37 -108 18 -34 -18 -46 -40 -47 -84 0 -32 6
-46 33 -71 63 -60 112 -78 217 -78 84 0 102 3 152 28 69 34 124 87 163 159 28
49 30 61 30 153 0 145 -9 160 -234 388 l-185 188 81 81 81 81 256 -253 256
-253 0 -911 0 -911 -255 -255 -255 -255 -82 82 -82 83 186 187 c111 113 195
206 208 233 35 67 39 195 10 272 -29 79 -96 150 -178 190 -60 29 -76 33 -152
33 -74 0 -92 -4 -143 -30 -76 -38 -107 -75 -107 -126 0 -80 81 -115 150 -64
67 49 136 51 200 5 36 -25 69 -90 70 -133 0 -41 -21 -75 -89 -142 l-61 -59
-63 62 c-39 39 -73 64 -93 68 -64 12 -125 -50 -110 -112 4 -15 34 -55 67 -89
32 -34 59 -64 59 -66 0 -2 -40 -46 -90 -96 -85 -86 -90 -93 -90 -134 0 -41 4
-46 162 -205 88 -89 172 -167 185 -173 60 -28 62 -26 358 269 l280 280 270
-270 c178 -178 281 -274 302 -281 26 -8 39 -7 66 6 44 21 347 326 348 351 3
57 -5 72 -94 161 l-91 92 67 70 c58 60 67 74 67 106 0 51 -44 95 -95 95 -32 0
-46 -9 -106 -67 l-70 -67 -59 59 c-74 73 -96 124 -81 183 15 56 53 97 106 117
55 21 95 15 154 -25 65 -44 117 -36 147 21 26 52 6 101 -59 144 -174 114 -405
48 -504 -145 -24 -47 -28 -67 -28 -140 0 -141 8 -155 231 -380 l194 -196 -83
-82 -83 -82 -257 252 -257 253 0 910 0 910 173 170 c94 94 211 208 258 253
l86 84 81 -82 82 -82 -184 -181 c-226 -223 -241 -246 -241 -387 0 -89 2 -99
34 -158 40 -74 94 -124 171 -160 46 -22 70 -26 140 -27 73 0 93 4 142 28 31
15 71 44 88 64 27 31 31 42 26 72 -12 79 -91 104 -162 52 -46 -34 -84 -42
-131 -29 -49 13 -107 70 -122 118 -19 64 -2 104 74 180 l65 64 57 -56 c71 -69
95 -82 139 -74 42 8 74 48 74 93 0 29 -11 46 -67 104 l-66 69 91 94 c87 89 92
95 92 137 0 42 -3 45 -170 213 -169 171 -170 171 -215 171 l-45 0 -278 -278
-277 -277 -265 266 c-231 232 -305 296 -337 293 -4 0 -17 -4 -28 -9z"/>
<path d="M4323 3075 c-37 -16 -53 -42 -53 -86 0 -28 17 -50 127 -161 l127
-128 -259 -260 -260 -260 -296 0 c-283 0 -296 -1 -317 -20 -17 -16 -22 -32
-22 -70 0 -78 -4 -77 351 -85 l307 -8 248 -248 248 -248 -127 -130 c-120 -121
-127 -131 -127 -169 0 -55 37 -92 93 -92 39 0 47 6 214 173 165 165 173 175
173 212 0 38 -9 48 -280 320 l-280 280 280 280 c271 271 280 282 280 320 0 37
-8 47 -162 203 -90 90 -177 170 -195 178 -38 16 -30 17 -70 -1z"/>
<path d="M1642 2913 c-178 -176 -197 -204 -172 -255 7 -13 133 -145 281 -293
l270 -271 -275 -274 c-178 -179 -277 -285 -281 -303 -4 -15 -2 -40 5 -56 6
-16 85 -101 174 -190 162 -160 164 -161 208 -161 48 0 80 24 91 69 10 40 -10
69 -134 193 l-121 121 252 252 252 252 305 6 c338 7 336 7 349 72 8 42 -18 93
-52 101 -14 4 -152 4 -306 2 l-280 -5 -260 260 -260 260 121 121 c130 131 148
161 126 214 -16 37 -42 52 -89 52 -32 0 -50 -15 -204 -167z"/>
</g>
</svg>
